<?xml version="1.0" encoding="UTF-8"?>
<svg xmlns="http://www.w3.org/2000/svg" xmlns:xlink="http://www.w3.org/1999/xlink" width="0" height="0">
<symbol id="instagram" width="24" height="24" viewBox="0 0 24 24" fill="none">
<path d="M17 2H7C4.23858 2 2 4.23858 2 7V17C2 19.7614 4.23858 22 7 22H17C19.7614 22 22 19.7614 22 17V7C22 4.23858 19.7614 2 17 2Z" stroke="#111111" stroke-width="2" stroke-linecap="round" stroke-linejoin="round"/>
<path d="M16 11.3701C16.1234 12.2023 15.9812 13.0523 15.5937 13.7991C15.2062 14.5459 14.5931 15.1515 13.8416 15.5297C13.0901 15.908 12.2384 16.0397 11.4077 15.906C10.5771 15.7723 9.80971 15.3801 9.21479 14.7852C8.61987 14.1903 8.22768 13.4229 8.09402 12.5923C7.96035 11.7616 8.09202 10.91 8.47028 10.1584C8.84854 9.40691 9.45414 8.7938 10.2009 8.4063C10.9477 8.0188 11.7977 7.87665 12.63 8.00006C13.4789 8.12594 14.2648 8.52152 14.8716 9.12836C15.4785 9.73521 15.8741 10.5211 16 11.3701Z" stroke="#111111" stroke-width="2" stroke-linecap="round" stroke-linejoin="round"/>
<path d="M16 11.3701C16.1234 12.2023 15.9812 13.0523 15.5937 13.7991C15.2062 14.5459 14.5931 15.1515 13.8416 15.5297C13.0901 15.908 12.2384 16.0397 11.4077 15.906C10.5771 15.7723 9.80971 15.3801 9.21479 14.7852C8.61987 14.1903 8.22768 13.4229 8.09402 12.5923C7.96035 11.7616 8.09202 10.91 8.47028 10.1584C8.84854 9.40691 9.45414 8.7938 10.2009 8.4063C10.9477 8.0188 11.7977 7.87665 12.63 8.00006C13.4789 8.12594 14.2648 8.52152 14.8716 9.12836C15.4785 9.73521 15.8741 10.5211 16 11.3701Z" stroke="#111111" stroke-width="2" stroke-linecap="round" stroke-linejoin="round"/>
<path d="M17.5 6.5H17.51" stroke="#111111" stroke-width="2" stroke-linecap="round" stroke-linejoin="round"/>
<path d="M17.5 6.5H17.51" stroke="#111111" stroke-width="2" stroke-linecap="round" stroke-linejoin="round"/>
</symbol>

<symbol id="chocolate" width="24" height="24" viewBox="0 0 24 24" fill="none">
<rect width="24" height="24" fill="#E2E2E2"/>
<rect width="1200" height="5054" transform="translate(-221 -24)" fill="#FAFAFA"/>
<path d="M2.95799 15.0568L11.0406 1.9886L11.5206 1.48303L17.6974 5.6014L17.7397 8.08665L19.2472 10.5463L12.5874 21.1038L2.95799 15.0568Z" fill="#FCF1E0"/>
<path d="M16.2259 17.9097L5.5868 11.2616M8.52069 6.44905L19.1598 13.0971M7.97248 19.3982L16.7742 4.96051M20.3823 11.0919C18.1025 9.6673 17.2071 8.55395 18.674 6.14767L11.4546 1.63647L2.6529 16.0742L13.2921 22.7223L20.3823 11.0919Z" stroke="#FD9222" stroke-width="2" stroke-linecap="round" stroke-linejoin="round"/>
</symbol>









<symbol id="twitter" width="24" height="24" viewBox="0 0 24 24" fill="none">
<path d="M23 3.00005C22.0424 3.67552 20.9821 4.19216 19.86 4.53005C19.2577 3.83756 18.4573 3.34674 17.567 3.12397C16.6767 2.90121 15.7395 2.95724 14.8821 3.2845C14.0247 3.61176 13.2884 4.19445 12.773 4.95376C12.2575 5.71308 11.9877 6.61238 12 7.53005V8.53005C10.2426 8.57561 8.50127 8.18586 6.93101 7.39549C5.36074 6.60513 3.51032 4.72313 2.5 3.2845C2.5 3.2845 -1 13 8 17C5.94053 18.398 3.48716 19.099 1 19C10 24 21 19 21 7.50005C20.9991 7.2215 20.9723 6.94364 20.92 6.67005C21.9406 5.66354 22.6608 4.39276 23 3.00005Z" stroke="#111111" stroke-width="2" stroke-linecap="round" stroke-linejoin="round"/>
</symbol>




<symbol id="spoon" viewBox="0 0 32 32">
<path fill="#fd9222" style="fill: var(--color1, #fd9222)" d="M15.452 14.106c-0.783-0.95-1.177-2.116-1.177-3.282 0-4.324 5.181-8.642 10.362-8.642 2.86 0 5.181 2.321 5.181 5.182 0 5.182-4.318 10.364-8.646 10.364-1.166 0-2.332-0.394-3.281-1.177l-12.758 12.761c-0.675 0.675-1.77 0.675-2.445 0s-0.675-1.771 0-2.445l12.764-12.761z"></path>
</symbol>


<symbol id="price" viewBox="0 0 32 32">
<path fill="#fd9222" style="fill: var(--color1, #fd9222)" d="M16 0.762c-8.381 0-15.238 6.857-15.238 15.238s6.857 15.238 15.238 15.238c8.381 0 15.238-6.857 15.238-15.238s-6.857-15.238-15.238-15.238zM16 28.191c-6.705 0-12.191-5.486-12.191-12.19s5.486-12.191 12.191-12.191c6.705 0 12.19 5.486 12.19 12.191s-5.486 12.19-12.19 12.19z"></path>
<path fill="#fd9222" style="fill: var(--color1, #fd9222)" d="M17.981 14.476h-3.962c-0.762 0-1.371-0.61-1.371-1.371s0.61-1.371 1.371-1.371h5.638c0.914 0 1.524-0.61 1.524-1.524s-0.61-1.524-1.524-1.524h-2.133v-1.371c0-0.914-0.61-1.524-1.524-1.524s-1.524 0.61-1.524 1.524v1.371h-0.457c-2.438 0-4.419 1.981-4.419 4.419s1.981 4.419 4.419 4.419h3.809c0.762 0 1.371 0.61 1.371 1.371s-0.61 1.371-1.371 1.371h-5.638c-0.914 0-1.524 0.61-1.524 1.524s0.61 1.524 1.524 1.524h2.286v1.371c0 0.914 0.61 1.524 1.524 1.524s1.524-0.61 1.524-1.524v-1.371h0.457c2.438 0 4.419-1.981 4.419-4.419s-1.981-4.419-4.419-4.419z"></path>
</symbol>



<symbol id="taste" width="32" height="32" viewBox="0 0 32 32" fill="none">
<path d="M13.822 2.41301L21.349 9.94901L21.429 9.86901C21.5867 9.71469 21.7978 9.6272 22.0184 9.62477C22.239 9.62235 22.452 9.70519 22.613 9.85601L22.619 9.86201L23.486 10.729C23.791 11.034 23.801 11.499 23.569 11.823L23.565 11.83L23.422 12.022L29.582 18.182C30.132 18.732 30.132 19.612 29.582 20.162L20.152 29.592C19.602 30.142 18.722 30.142 18.172 29.592L13.725 25.145C13.6512 25.2381 13.5584 25.3145 13.4529 25.3692C13.3474 25.4239 13.2316 25.4556 13.1129 25.4623C12.9943 25.469 12.8756 25.4505 12.7646 25.4081C12.6536 25.3656 12.5529 25.3002 12.469 25.216L9.86901 22.616C9.71469 22.4584 9.6272 22.2472 9.62477 22.0266C9.62235 21.806 9.70519 21.593 9.85601 21.432L9.86201 21.425L9.93901 21.349L2.41201 13.822C1.86201 13.272 1.86201 12.392 2.41201 11.842L11.842 2.41201C12.392 1.86201 13.272 1.86201 13.822 2.41201V2.41301ZM20.404 10.893L18.648 9.13801C18.5928 9.0811 18.5268 9.03585 18.4538 9.00495C18.3808 8.97405 18.3023 8.95813 18.223 8.95813C18.1437 8.95813 18.0653 8.97405 17.9923 9.00495C17.9193 9.03585 17.8532 9.0811 17.798 9.13801L14.218 12.718C14.1613 12.7743 14.1163 12.8413 14.0856 12.9151C14.0548 12.9889 14.039 13.0681 14.039 13.148C14.039 13.2279 14.0548 13.3071 14.0856 13.3809C14.1163 13.4547 14.1613 13.5217 14.218 13.578L15.967 15.327L16.577 14.717L15.012 13.152L18.222 9.93201L19.791 11.506L20.404 10.893ZM15.328 15.965L13.574 14.211C13.5188 14.1541 13.4528 14.1088 13.3798 14.0779C13.3068 14.047 13.2283 14.0311 13.149 14.0311C13.0697 14.0311 12.9913 14.047 12.9183 14.0779C12.8453 14.1088 12.7792 14.1541 12.724 14.211L9.14401 17.791L9.13901 17.796L9.13401 17.801C8.89401 18.031 8.89401 18.411 9.13401 18.651L10.886 20.403L11.502 19.787L9.93201 18.223L13.152 15.013L14.716 16.576L15.328 15.965ZM8.82201 8.19301L12.402 11.773C12.642 12.013 13.022 12.013 13.252 11.763L16.832 8.18301C16.8889 8.12884 16.9342 8.06368 16.9651 7.99148C16.9961 7.91929 17.012 7.84156 17.012 7.76301H17.022C17.022 7.61301 16.962 7.45301 16.842 7.33301L13.262 3.75301C13.2058 3.69617 13.1388 3.65105 13.065 3.62025C12.9912 3.58946 12.912 3.5736 12.832 3.5736C12.752 3.5736 12.6729 3.58946 12.599 3.62025C12.5252 3.65105 12.4583 3.69617 12.402 3.75301L8.82201 7.34301C8.58201 7.57301 8.58201 7.95301 8.82201 8.19301ZM3.75201 13.263L7.33201 16.843C7.57201 17.083 7.95201 17.083 8.18201 16.843L11.762 13.263C11.8201 13.2077 11.8661 13.1409 11.8971 13.0669C11.9281 12.9929 11.9434 12.9132 11.942 12.833H11.952C11.952 12.673 11.892 12.523 11.772 12.403L8.19201 8.82301C8.13683 8.7661 8.07077 8.72085 7.99776 8.68995C7.92476 8.65905 7.84629 8.64313 7.76701 8.64313C7.68774 8.64313 7.60927 8.65905 7.53626 8.68995C7.46326 8.72085 7.3972 8.7661 7.34201 8.82301L3.75201 12.413C3.51201 12.643 3.51201 13.023 3.75201 13.263ZM10.685 22.017L13.047 24.38L22.683 11.34L22.028 10.685L10.685 22.017Z" fill="black"/>
<path d="M13.822 2.41301L21.349 9.94901L21.429 9.86901C21.5867 9.71469 21.7978 9.6272 22.0184 9.62477C22.239 9.62235 22.452 9.70519 22.613 9.85601L22.619 9.86201L23.486 10.729C23.791 11.034 23.801 11.499 23.569 11.823L23.565 11.83L23.422 12.022L29.582 18.182C30.132 18.732 30.132 19.612 29.582 20.162L20.152 29.592C19.602 30.142 18.722 30.142 18.172 29.592L13.725 25.145C13.6512 25.2381 13.5584 25.3145 13.4529 25.3692C13.3474 25.4239 13.2316 25.4556 13.1129 25.4623C12.9943 25.469 12.8756 25.4505 12.7646 25.4081C12.6536 25.3656 12.5529 25.3002 12.469 25.216L9.86901 22.616C9.71469 22.4584 9.6272 22.2472 9.62477 22.0266C9.62235 21.806 9.70519 21.593 9.85601 21.432L9.86201 21.425L9.93901 21.349L2.41201 13.822C1.86201 13.272 1.86201 12.392 2.41201 11.842L11.842 2.41201C12.392 1.86201 13.272 1.86201 13.822 2.41201V2.41301ZM20.404 10.893L18.648 9.13801C18.5928 9.0811 18.5268 9.03585 18.4538 9.00495C18.3808 8.97405 18.3023 8.95813 18.223 8.95813C18.1437 8.95813 18.0653 8.97405 17.9923 9.00495C17.9193 9.03585 17.8532 9.0811 17.798 9.13801L14.218 12.718C14.1613 12.7743 14.1163 12.8413 14.0856 12.9151C14.0548 12.9889 14.039 13.0681 14.039 13.148C14.039 13.2279 14.0548 13.3071 14.0856 13.3809C14.1163 13.4547 14.1613 13.5217 14.218 13.578L15.967 15.327L16.577 14.717L15.012 13.152L18.222 9.93201L19.791 11.506L20.404 10.893ZM15.328 15.965L13.574 14.211C13.5188 14.1541 13.4528 14.1088 13.3798 14.0779C13.3068 14.047 13.2283 14.0311 13.149 14.0311C13.0697 14.0311 12.9913 14.047 12.9183 14.0779C12.8453 14.1088 12.7792 14.1541 12.724 14.211L9.14401 17.791L9.13901 17.796L9.13401 17.801C8.89401 18.031 8.89401 18.411 9.13401 18.651L10.886 20.403L11.502 19.787L9.93201 18.223L13.152 15.013L14.716 16.576L15.328 15.965ZM8.82201 8.19301L12.402 11.773C12.642 12.013 13.022 12.013 13.252 11.763L16.832 8.18301C16.8889 8.12884 16.9342 8.06368 16.9651 7.99148C16.9961 7.91929 17.012 7.84156 17.012 7.76301H17.022C17.022 7.61301 16.962 7.45301 16.842 7.33301L13.262 3.75301C13.2058 3.69617 13.1388 3.65105 13.065 3.62025C12.9912 3.58946 12.912 3.5736 12.832 3.5736C12.752 3.5736 12.6729 3.58946 12.599 3.62025C12.5252 3.65105 12.4583 3.69617 12.402 3.75301L8.82201 7.34301C8.58201 7.57301 8.58201 7.95301 8.82201 8.19301ZM3.75201 13.263L7.33201 16.843C7.57201 17.083 7.95201 17.083 8.18201 16.843L11.762 13.263C11.8201 13.2077 11.8661 13.1409 11.8971 13.0669C11.9281 12.9929 11.9434 12.9132 11.942 12.833H11.952C11.952 12.673 11.892 12.523 11.772 12.403L8.19201 8.82301C8.13683 8.7661 8.07077 8.72085 7.99776 8.68995C7.92476 8.65905 7.84629 8.64313 7.76701 8.64313C7.68774 8.64313 7.60927 8.65905 7.53626 8.68995C7.46326 8.72085 7.3972 8.7661 7.34201 8.82301L3.75201 12.413C3.51201 12.643 3.51201 13.023 3.75201 13.263ZM10.685 22.017L13.047 24.38L22.683 11.34L22.028 10.685L10.685 22.017Z" fill="#FD9222"/>
</symbol>

</svg>










</svg>






